<svg viewBox="0 0 200 200" xmlns="http://www.w3.org/2000/svg">
  <defs>
    <linearGradient id="blueGradient" x1="0%" y1="0%" x2="100%" y2="100%">
      <stop offset="0%" style="stop-color:#4285F4;stop-opacity:1" />
      <stop offset="100%" style="stop-color:#1565C0;stop-opacity:1" />
    </linearGradient>
  </defs>
  
  <!-- Outer blue circle -->
  <circle cx="100" cy="100" r="100" fill="url(#blueGradient)"/>
  
  <!-- White ring -->
  <circle cx="100" cy="100" r="75" fill="white"/>
  
  <!-- Inner blue circle -->
  <circle cx="100" cy="100" r="60" fill="#1976D2"/>
  
  <!-- Cyan C shape -->
  <path d="M 60 100 
           A 40 40 0 1 1 60 99.9
           A 25 25 0 1 0 60 100.1 Z" 
        fill="#00E5FF"/>
  
  <!-- Top opening -->
  <path d="M 100 60
           A 40 40 0 0 1 135 85
           A 25 25 0 0 0 100 75 Z" 
        fill="white"/>
        
  <!-- Bottom opening -->  
  <path d="M 100 140
           A 40 40 0 0 1 135 115
           A 25 25 0 0 0 100 125 Z" 
        fill="white"/>
</svg>
